<?xml version="1.0" encoding="UTF-8" standalone="no"?>
<!-- Created with Inkscape (http://www.inkscape.org/) -->

<svg
   xmlns:dc="http://purl.org/dc/elements/1.1/"
   xmlns:cc="http://creativecommons.org/ns#"
   xmlns:rdf="http://www.w3.org/1999/02/22-rdf-syntax-ns#"
   xmlns:svg="http://www.w3.org/2000/svg"
   xmlns="http://www.w3.org/2000/svg"
   xmlns:sodipodi="http://sodipodi.sourceforge.net/DTD/sodipodi-0.dtd"
   xmlns:inkscape="http://www.inkscape.org/namespaces/inkscape"
   width="210mm"
   height="297mm"
   viewBox="0 0 210 297"
   version="1.1"
   id="svg8"
   inkscape:version="0.92.4 (5da689c313, 2019-01-14)"
   sodipodi:docname="drawing.svg">
  <defs
     id="defs2" />
  <sodipodi:namedview
     id="base"
     pagecolor="#ffffff"
     bordercolor="#666666"
     borderopacity="1.0"
     inkscape:pageopacity="0.0"
     inkscape:pageshadow="2"
     inkscape:zoom="0.7"
     inkscape:cx="271.31484"
     inkscape:cy="714.41362"
     inkscape:document-units="mm"
     inkscape:current-layer="layer1"
     showgrid="false"
     inkscape:window-width="1366"
     inkscape:window-height="706"
     inkscape:window-x="-8"
     inkscape:window-y="-8"
     inkscape:window-maximized="1" />
  <metadata
     id="metadata5">
    <rdf:RDF>
      <cc:Work
         rdf:about="">
        <dc:format>image/svg+xml</dc:format>
        <dc:type
           rdf:resource="http://purl.org/dc/dcmitype/StillImage" />
        <dc:title></dc:title>
      </cc:Work>
    </rdf:RDF>
  </metadata>
  <g
     inkscape:label="Layer 1"
     inkscape:groupmode="layer"
     id="layer1">
    <g
       id="g318"
       transform="matrix(0.26458333,0,0,0.26458333,-54.641366,23.941091)">
      <circle
         id="circle137"
         r="33"
         cy="54.424511"
         cx="33.246578"
         style="fill:#ccff00" />
      <polygon
         id="polygon139"
         points="150.747,204.425 140.747,204.425 140.747,21.425 33.747,21.425 33.747,328.425 121.747,328.425 140.747,328.425 228.747,328.425 228.747,204.425 200.747,204.425 200.747,191.425 150.747,191.425 "
         style="fill:#e6e6e6" />
      <path
         id="path141"
         transform="translate(-130.62671,-46.53774)"
         d="m 702.26489,217.54191 c 0,0 -0.0679,0.0653 -0.18555,0.17968 l 10e-4,-0.17968 -0.005,0.18341 c -2.52942,2.45984 -30.69214,30.24908 -41.61829,58.43518 -3.62695,-4.03528 -6.19226,-6.49713 -6.19226,-6.49713 0,0 -0.0444,0.0428 -0.12158,0.1178 l 7.3e-4,-0.1178 -0.003,0.12024 c -2.06128,2.00439 -30.0965,29.6701 -30.0965,51.5932 0,21.16638 11.70294,29.51971 26.76617,30.58569 l -1.09277,20.8783 h 3.05249 l 0.33753,-20.772 c 0.38415,0.009 0.7694,0.0145 1.1571,0.0145 11.13049,0 20.84888,-3.54236 26.093,-12.64691 a 53.91208,53.91208 0 0 0 16.63672,3.67138 l -1.66748,31.85456 h 4.65734 l 0.5149,-31.69239 c 0.58606,0.0132 1.174,0.022 1.7655,0.022 25.46509,0 46.1084,-12.12464 46.1084,-46.84955 0,-34.72491 -46.1084,-78.90045 -46.1084,-78.90045 z"
         inkscape:connector-curvature="0"
         style="fill:#f2f2f2" />
      <path
         id="path143"
         transform="translate(-130.62671,-46.53774)"
         d="m 592.37329,239.23344 v -18.27118 h -56 v 18.27118 h -26 v -72.27118 h -25 v -28 h -56 v 28 h -26 V 280.41843 A 154.53181,154.53181 0 0 0 391.265,266.96226 c 0,0 -0.0446,0.0428 -0.12164,0.11779 l 6.7e-4,-0.11779 -0.003,0.12024 c -2.06122,2.00439 -30.09644,29.6701 -30.09644,51.5932 0,21.16638 11.70294,29.51971 26.76623,30.58569 l -1.09289,20.8783 h 3.05261 l 0.33747,-20.772 c 0.38409,0.009 0.76947,0.0145 1.15716,0.0145 a 40.12728,40.12728 0 0 0 12.10834,-1.71106 v 27.2912 h 214 V 239.23344 Z"
         inkscape:connector-curvature="0"
         style="fill:#f2f2f2" />
      <path
         id="path145"
         transform="translate(-130.62671,-46.53774)"
         d="m 1023.2649,218.8408 c 0,0 -0.068,0.0653 -0.1856,0.17968 l 10e-4,-0.17968 v 0.18341 c -2.618,2.546 -32.69829,32.2276 -42.70219,61.39856 v -14.46051 l -96,-145 -96,145 v 109 h 192 v -56.35694 c 6.13525,17.15589 20.44479,24.58576 37.62139,25.80127 l -1.6675,31.85456 h 4.6573 l 0.5149,-31.69239 c 0.5861,0.0132 1.174,0.022 1.7655,0.022 25.4651,0 46.1084,-12.12464 46.1084,-46.84955 0,-34.72491 -46.1084,-78.90041 -46.1084,-78.90041 z"
         inkscape:connector-curvature="0"
         style="fill:#f2f2f2" />
      <ellipse
         id="ellipse147"
         ry="11.66049"
         rx="126.5"
         cy="356.08502"
         cx="152.74658"
         style="fill:#f2f2f2" />
      <ellipse
         id="ellipse149"
         ry="5.2003598"
         rx="56.416611"
         cy="503.79489"
         cx="854.24829"
         style="fill:#f2f2f2" />
      <ellipse
         id="ellipse151"
         ry="5.2003598"
         rx="56.416611"
         cy="412.79489"
         cx="250.24829"
         style="fill:#f2f2f2" />
      <path
         id="path153"
         transform="translate(-130.62671,-46.53774)"
         d="m 1008.8733,529.4333 c 0,14.58087 -8.6676,19.672 -19.36057,19.672 q -0.37157,0 -0.742,-0.008 c -0.49543,-0.0106 -0.98615,-0.0342 -1.471,-0.0672 -9.65019,-0.683 -17.14765,-6.03595 -17.14765,-19.59648 0,-14.03354 17.93326,-31.74149 19.28034,-33.052 l 0.002,-0.002 c 0.0519,-0.0507 0.0779,-0.0755 0.0779,-0.0755 0,0 19.36068,18.54895 19.36068,33.12982 z"
         inkscape:connector-curvature="0"
         style="fill:#55d400" />
      <path
         id="path155"
         transform="translate(-130.62671,-46.53774)"
         d="m 988.80734,546.87467 7.08105,-9.89437 -7.09875,10.98077 -0.0189,1.136 c -0.49543,-0.0106 -0.98615,-0.0342 -1.471,-0.0672 l 0.76321,-14.58795 -0.006,-0.11324 0.013,-0.0212 0.072,-1.37776 -7.11645,-11.0079 7.13886,9.97458 0.0165,0.29254 0.5768,-11.02206 -6.09258,-11.37481 6.16687,9.44024 0.6004,-22.851 0.002,-0.0779 v 0.0755 l -0.10026,18.01937 6.06544,-7.14358 -6.0902,8.69591 -0.16043,9.86842 5.6632,-9.4709 -5.68678,10.923 -0.0897,5.48625 8.22171,-13.18188 -8.25238,15.09635 z"
         inkscape:connector-curvature="0"
         style="fill:#3f3d56" />
      <ellipse
         id="ellipse157"
         ry="9.70156"
         rx="105.24829"
         cy="683.92688"
         cx="105.24829"
         style="fill:#f2f2f2" />
      <path
         id="path159"
         transform="translate(-130.62671,-46.53774)"
         d="m 280.64513,691.47581 c 0,27.20142 -16.16989,36.69915 -36.11819,36.69915 q -0.69318,0 -1.38415,-0.0154 c -0.92426,-0.0198 -1.83971,-0.0638 -2.74415,-0.12544 -18.003,-1.27413 -31.98988,-11.26038 -31.98988,-36.5583 0,-26.18034 33.45548,-59.2155 35.96853,-61.66036 l 0.004,-0.004 c 0.0968,-0.0946 0.14524,-0.14084 0.14524,-0.14084 0,0 36.11819,34.60418 36.11819,61.80559 z"
         inkscape:connector-curvature="0"
         style="fill:#66ff00" />
      <path
         id="path161"
         transform="translate(-130.62671,-46.53774)"
         d="m 243.211,724.01364 13.21008,-18.45848 -13.24308,20.48523 -0.0352,2.11916 c -0.92426,-0.0198 -1.83971,-0.0638 -2.74415,-0.12544 l 1.4238,-27.21461 -0.011,-0.21126 0.0242,-0.0396 0.13423,-2.57028 -13.27617,-20.53585 13.31794,18.60813 0.0308,0.54574 1.07606,-20.56224 -11.366,-21.22024 11.50463,17.61128 1.12009,-42.62972 0.004,-0.14523 v 0.14084 l -0.187,33.61612 11.31541,-13.32674 -11.36161,16.2227 -0.29928,18.41008 10.565,-17.66848 -10.609,20.37741 -0.16725,10.23491 15.33804,-24.59153 -15.39527,28.16308 z"
         inkscape:connector-curvature="0"
         style="fill:#3f3d56" />
      <path
         id="path163"
         transform="translate(-130.62671,-46.53774)"
         d="m 426.87329,272.86561 c 0,57.42488 -34.13818,77.47551 -76.24976,77.47551 -42.11158,0 -76.24976,-20.05063 -76.24976,-77.47551 0,-57.42488 76.24976,-130.47839 76.24976,-130.47839 0,0 76.24976,73.05351 76.24976,130.47839 z"
         inkscape:connector-curvature="0"
         style="fill:#66ff00" />
      <polygon
         id="polygon165"
         points="218.122,239.421 218.473,217.811 240.872,174.795 218.566,212.092 218.566,212.093 219.198,173.227 243.183,138.981 219.297,167.115 219.692,95.849 217.212,190.193 217.416,186.301 193.03,148.974 217.025,193.772 214.753,237.178 214.685,236.026 186.573,196.746 214.6,240.096 214.316,245.524 214.265,245.606 214.288,246.052 208.524,356.177 216.226,356.177 217.15,299.295 245.108,256.051 217.219,295.019 218,246.96 250.5,187.503 "
         style="fill:#3f3d56" />
      <path
         id="path167"
         transform="translate(-130.62671,-46.53774)"
         d="m 293.15614,272.86561 c 0,57.42488 -34.13818,77.47551 -76.24976,77.47551 -42.11158,0 -76.24976,-20.05063 -76.24976,-77.47551 0,-57.42488 76.24976,-130.47839 76.24976,-130.47839 0,0 76.24976,73.05351 76.24976,130.47839 z"
         inkscape:connector-curvature="0"
         style="fill:#66ff00" />
      <polygon
         id="polygon169"
         points="84.405,239.421 84.756,217.811 107.155,174.795 84.849,212.092 84.849,212.093 85.481,173.227 109.465,138.981 85.58,167.115 85.974,95.849 83.495,190.193 83.699,186.301 59.313,148.974 83.308,193.772 81.036,237.178 80.968,236.026 52.856,196.746 80.883,240.096 80.599,245.524 80.548,245.606 80.571,246.052 74.807,356.177 82.509,356.177 83.433,299.295 111.391,256.051 83.502,295.019 84.283,246.96 116.782,187.503 "
         style="fill:#3f3d56" />
      <path
         id="path171"
         transform="translate(-130.62671,-46.53774)"
         d="m 395.87329,222.97645 c 0,77.65249 -46.16317,104.76584 -103.10833,104.76584 -56.94516,0 -103.10834,-27.11335 -103.10834,-104.76584 0,-77.65249 103.10838,-176.43871 103.10838,-176.43871 0,0 103.10829,98.78626 103.10829,176.43871 z"
         inkscape:connector-curvature="0"
         style="fill:#f2f2f2" />
      <polygon
         id="polygon173"
         points="159.604,194.143 160.078,164.922 190.367,106.754 160.204,157.189 160.204,157.189 161.058,104.633 193.491,58.324 161.192,96.369 161.725,0 158.373,127.575 158.648,122.312 125.673,71.838 158.12,132.415 155.047,191.111 154.956,189.553 116.941,136.436 154.841,195.057 154.456,202.397 154.387,202.507 154.419,203.11 146.624,352.026 157.039,352.026 158.288,275.108 196.095,216.632 158.382,269.326 159.438,204.338 203.385,123.938 "
         style="fill:#3f3d56" />
      <path
         id="path175"
         transform="translate(-130.62671,-46.53774)"
         d="m 393.87329,447.96226 a 12.93882,12.93882 0 0 1 -0.74455,4.355 13.10619,13.10619 0 0 1 -3.5218,5.28273 12.96623,12.96623 0 0 1 -5.90909,3.04908 12.73165,12.73165 0 0 1 -2.82456,0.3132 13.13718,13.13718 0 0 1 -6.72455,-1.8673 13.10833,13.10833 0 0 1 -4.54409,-4.64453 13.00143,13.00143 0 1 1 24.26864,-6.48817 z"
         inkscape:connector-curvature="0"
         style="fill:#3f3d56" />
      <polygon
         id="polygon177"
         points="242.417,399.02 238.789,399.48 237.696,398.039 240.449,392.88 241.613,392.732 243.829,395.645 "
         style="fill:#f2f2f2" />
      <polygon
         id="polygon179"
         points="243.305,400.875 246.934,400.414 249.149,403.326 247.734,406.701 244.104,407.163 241.889,404.25 "
         style="fill:#f2f2f2" />
      <path
         id="path181"
         transform="translate(-130.62671,-46.53774)"
         d="m 375.04693,456.95588 -0.89819,2.13908 a 13.10833,13.10833 0 0 1 -4.54409,-4.64453 l 3.22637,-0.40773 z"
         inkscape:connector-curvature="0"
         style="fill:#f2f2f2" />
      <polygon
         id="polygon183"
         points="247.441,390.83 251.071,390.368 253.285,393.281 251.87,396.655 248.241,397.117 246.026,394.204 "
         style="fill:#f2f2f2" />
      <polygon
         id="polygon185"
         points="252.759,398.512 256.389,398.05 258.604,400.963 257.189,404.337 253.559,404.799 251.344,401.886 "
         style="fill:#f2f2f2" />
      <path
         id="path187"
         transform="translate(-130.62671,-46.53774)"
         d="m 384.50148,458.7286 -0.80363,1.92046 a 12.73165,12.73165 0 0 1 -2.82456,0.3132 12.86362,12.86362 0 0 1 -2.87773,-0.325 l -0.75046,-0.98684 1.41228,-3.37407 3.62819,-0.46092 z"
         inkscape:connector-curvature="0"
         style="fill:#f2f2f2" />
      <path
         id="path189"
         transform="translate(-130.62671,-46.53774)"
         d="m 392.43738,442.02363 -3.52183,0.44906 -2.21591,-2.91318 1.09321,-2.60589 a 13.00752,13.00752 0 0 1 4.64453,5.07001 z"
         inkscape:connector-curvature="0"
         style="fill:#f2f2f2" />
      <path
         id="path191"
         transform="translate(-130.62671,-46.53774)"
         d="m 393.12874,452.31725 a 13.10619,13.10619 0 0 1 -3.5218,5.28273 l -1.13457,-1.495 1.41228,-3.37406 z"
         inkscape:connector-curvature="0"
         style="fill:#f2f2f2" />
      <ellipse
         id="ellipse193"
         ry="14.25"
         rx="243"
         cy="792.6745"
         cx="546.74658"
         style="fill:#f2f2f2" />
      <path
         id="path195"
         transform="translate(-130.62671,-46.53774)"
         d="m 557.98668,798.31313 -51.26709,45.99647 c -22.987,-10.07991 -38.24936,-27.23282 -45.99647,-51.26709 L 511.99021,747.046 c 0.32304,30.22312 15.97292,47.03409 45.99647,51.26713 z"
         inkscape:connector-curvature="0"
         style="fill:#e6e6e6" />
      <rect
         id="rect197"
         transform="rotate(-40.49916,360.94667,936.70149)"
         height="0.99944001"
         width="45.541191"
         y="782.427"
         x="466.56384"
         style="fill:#3f3d56" />
      <rect
         id="rect199"
         transform="rotate(-42.05889,367.60887,935.9929)"
         height="0.99897999"
         width="44.944408"
         y="788.87616"
         x="470.97452"
         style="fill:#3f3d56" />
      <path
         id="path201"
         transform="translate(-130.62671,-46.53774)"
         d="m 583.22592,631.301 -68.49423,7.2478 c -12.72573,-21.63472 -15.04771,-44.477 -7.24781,-68.49423 l 68.49423,-7.2478 C 558.536,587.491 561.37227,610.28318 583.22592,631.301 Z"
         inkscape:connector-curvature="0"
         style="fill:#f2f2f2" />
      <rect
         id="rect203"
         transform="rotate(-4.64128,-102.9009,2167.0291)"
         height="0.99944001"
         width="45.541191"
         y="578.11615"
         x="513.82758"
         style="fill:#3f3d56" />
      <rect
         id="rect205"
         transform="rotate(-6.20101,41.262703,1768.7622)"
         height="0.99897999"
         width="44.944408"
         y="585.75195"
         x="513.68121"
         style="fill:#3f3d56" />
      <path
         id="path207"
         transform="translate(-130.62671,-46.53774)"
         d="m 520.58543,486.12415 -45.789,-51.4525 c 10.1727,-22.94606 27.38713,-38.139 51.45251,-45.789 l 45.789,51.45251 c -30.22414,0.20096 -47.09821,15.78284 -51.45251,45.78899 z"
         inkscape:connector-curvature="0"
         style="fill:#e6e6e6" />
      <rect
         id="rect209"
         transform="rotate(-40.26768,407.46666,572.41676)"
         height="45.541191"
         width="0.99944001"
         y="394.76404"
         x="535.74939"
         style="fill:#3f3d56" />
      <rect
         id="rect211"
         transform="rotate(-41.8274,403.57878,569.26809)"
         height="44.944408"
         width="0.99897999"
         y="399.14862"
         x="529.28406"
         style="fill:#3f3d56" />
      <rect
         id="rect213"
         transform="rotate(-30,429.71932,533.94615)"
         height="133"
         width="54"
         y="246.96227"
         x="554.87329"
         style="fill:#3f3d56" />
      <rect
         id="rect215"
         transform="rotate(-30.92535,412.48197,494.66963)"
         height="0.99952"
         width="43.38195"
         y="281.32919"
         x="540.22186"
         style="fill:#6c63ff" />
      <rect
         id="rect217"
         transform="rotate(-30.92535,418.40288,502.93623)"
         height="0.99952"
         width="43.38195"
         y="289.59579"
         x="546.14276"
         style="fill:#6c63ff" />
      <rect
         id="rect219"
         transform="rotate(-30.92535,422.40288,509.93624)"
         height="0.99952"
         width="43.38195"
         y="296.59579"
         x="550.14276"
         style="fill:#6c63ff" />
      <rect
         id="rect221"
         transform="rotate(-30.92535,428.40289,518.93624)"
         height="0.99952"
         width="43.38195"
         y="305.59579"
         x="556.14276"
         style="fill:#6c63ff" />
      <rect
         id="rect223"
         transform="rotate(-30.92535,437.40288,531.93649)"
         height="0.99952"
         width="43.382198"
         y="318.59604"
         x="565.14264"
         style="fill:#6c63ff" />
      <path
         id="path225"
         transform="translate(-130.62671,-46.53774)"
         d="m 741.62,388.30406 c 0,0 25.74126,-12.38061 44.05859,-7.76585 L 741.62,261.71352 V 249.512 l 62.36214,148.379 v 0 c 15.59183,29.38982 35.304,96.37434 1.69573,101.75169 -38.12968,6.10075 -106.76311,28.97856 -106.76311,28.97856 L 683.66288,395.93 Z"
         inkscape:connector-curvature="0"
         style="fill:#2f2e41" />
      <path
         id="path227"
         transform="translate(-130.62671,-46.53774)"
         d="m 591.38906,348.64919 c 0,0 -41.18006,-51.85636 -51.85637,-33.55412 -10.67631,18.30224 47.94731,49.08811 47.94731,49.08811 z"
         inkscape:connector-curvature="0"
         style="fill:#ffb9b9" />
      <path
         id="path229"
         transform="translate(-130.62671,-46.53774)"
         d="m 605.11574,350.17438 -16.77706,-9.15113 c 0,0 -10.67631,27.45337 -10.67631,32.02893 0,4.57556 16.77706,6.10075 16.77706,6.10075 z"
         inkscape:connector-curvature="0"
         style="fill:#d0cde1" />
      <circle
         id="circle231"
         r="39.654869"
         cy="148.06754"
         cx="538.54688"
         style="fill:#ffb9b9" />
      <path
         id="path233"
         transform="translate(-130.62671,-46.53774)"
         d="m 699.67735,190.02972 c 0,0 16.77706,50.33118 28.97855,53.38155 12.20149,3.05037 -47.2808,25.92819 -47.2808,25.92819 0,0 -18.30225,-42.70525 -27.45337,-53.38156 -9.15112,-10.67631 45.75562,-25.92818 45.75562,-25.92818 z"
         inkscape:connector-curvature="0"
         style="fill:#ffb9b9" />
      <path
         id="path235"
         transform="translate(-130.62671,-46.53774)"
         d="m 795.00155,484.39085 c 32.8753,-5.26 14.73,-69.47263 -0.671,-99.77977 a 20.195,20.195 0 0 1 3.72137,3.693 c 15.25187,19.82743 45.75562,105.23791 7.62594,111.33866 -38.12968,6.10075 -106.76311,28.97856 -106.76311,28.97856 l -2.075,-18.0524 c 19.61168,-6.29579 68.26239,-21.39415 98.1618,-26.17805 z"
         inkscape:connector-curvature="0"
         style="opacity:0.1" />
      <path
         id="path237"
         transform="translate(-130.62671,-46.53774)"
         d="m 847.6205,746.723 c 0,0 38.12968,30.50375 35.07931,33.55412 -3.05037,3.05037 -35.07931,51.85637 -62.53268,56.43193 -27.45337,4.57556 -39.65486,4.57556 -39.65486,0 0,-4.57556 7.62593,-15.25187 21.35262,-19.82744 13.72669,-4.57557 15.25187,-35.0793 13.72668,-41.18005 -1.52519,-6.10075 32.02893,-28.97856 32.02893,-28.97856 z"
         inkscape:connector-curvature="0"
         style="fill:#2f2e41" />
      <path
         id="path239"
         transform="translate(-130.62671,-46.53774)"
         d="m 733.23146,519.47015 24.403,114.389 c 0,0 100.66235,112.86385 97.612,114.389 -3.05035,1.52515 -33.55412,32.02893 -39.65487,32.02893 -6.10075,0 -111.33866,-118.9646 -111.33866,-118.9646 l -38.12968,-99.13717 z"
         inkscape:connector-curvature="0"
         style="fill:#2f2e41" />
      <path
         id="path241"
         transform="translate(-130.62671,-46.53774)"
         d="m 733.23146,519.47015 24.403,114.389 c 0,0 100.66235,112.86385 97.612,114.389 -3.05035,1.52515 -33.55412,32.02893 -39.65487,32.02893 -6.10075,0 -111.33866,-118.9646 -111.33866,-118.9646 l -38.12968,-99.13717 z"
         inkscape:connector-curvature="0"
         style="opacity:0.1" />
      <path
         id="path243"
         transform="translate(-130.62671,-46.53774)"
         d="m 757.63446,482.86566 c 0,0 -12.20146,51.85634 -45.75562,86.93567 -33.55416,35.07933 -48.806,106.7631 -48.806,106.7631 L 629.51874,819.932 c 0,0 -59.4823,-7.62594 -56.43193,-22.87781 l 32.02893,-126.59054 c 0,0 36.60449,-175.39652 56.43193,-187.598 19.82744,-12.20148 96.08679,10e-6 96.08679,10e-6 z"
         inkscape:connector-curvature="0"
         style="fill:#2f2e41" />
      <path
         id="path245"
         transform="translate(-130.62671,-46.53774)"
         d="m 626.46836,807.73053 c 0,0 9.15112,28.97856 3.05038,32.02893 -6.10074,3.05037 -114.38904,9.15113 -120.48974,-12.20146 0,0 -3.05038,-10.67631 21.35262,-10.67631 24.403,0 50.33118,-22.8778 50.33118,-22.8778 z"
         inkscape:connector-curvature="0"
         style="fill:#2f2e41" />
      <path
         id="path247"
         transform="translate(-130.62671,-46.53774)"
         d="m 672.224,263.23871 c 0,0 39.65486,-39.65487 50.33117,-36.6045 10.67631,3.05037 10.67631,18.30225 10.67631,18.30225 0,0 33.55412,4.57556 30.50375,114.389 -3.05037,109.81344 27.45337,122.015 16.77706,128.11572 -10.67631,6.10072 -132.69129,33.55416 -137.26687,6.10082 -4.57558,-27.45334 -3.05037,-132.69128 9.15112,-166.2454 12.20149,-33.55412 27.45337,-54.90677 19.82746,-64.05789 z"
         inkscape:connector-curvature="0"
         style="fill:#44aa00" />
      <path
         id="path249"
         transform="translate(-130.62671,-46.53774)"
         d="m 722.55515,272.38983 c 0,0 45.75562,21.35262 19.82744,62.53267 -25.92818,41.18005 -45.75559,85.4105 -73.20899,83.8853 -27.4534,-1.5252 -70.15861,-27.45337 -82.36011,-27.45337 -12.2015,0 4.57557,-44.23043 13.72669,-45.75562 9.15112,-1.52519 51.85636,24.403 51.85636,24.403 0,0 15.25188,-103.71273 70.15861,-97.61198 z"
         inkscape:connector-curvature="0"
         style="fill:#44aa00" />
      <path
         id="path251"
         transform="translate(-130.62671,-46.53774)"
         d="m 692.0502,198.9873 c -3.38281,-0.20184 -6.68589,0.94138 -10.04523,1.38738 -12.01878,1.59566 -24.522,-7.12574 -27.17572,-18.956 a 14.54469,14.54469 0 0 0 -1.38995,-4.52877 c -1.84974,-3.02 -6.06244,-3.59583 -9.53519,-2.90138 -3.47275,0.69445 -6.7646,2.31978 -10.30124,2.50534 -5.46064,0.28652 -10.70312,-3.07527 -13.61328,-7.7047 -2.91016,-4.62943 -3.73416,-10.32591 -3.3413,-15.77993 l 2.6178,2.74749 a 13.29656,13.29656 0 0 0 1.18532,-7.22646 8.38565,8.38565 0 0 1 7.943,2.03245 c 2.30828,0.24565 0.56616,-4.28146 2.28105,-5.846 0.71808,-0.65512 1.819,-0.53152 2.791,-0.52215 4.91058,0.0473 8.883,-3.70861 12.75264,-6.73218 a 54.19076,54.19076 0 0 1 22.88765,-10.44 c 5.545,-1.08153 11.4414,-1.25533 16.70007,0.80949 4.31867,1.69572 7.93346,4.78419 11.27782,8 8.23294,7.91654 15.52333,17.21819 18.94841,28.11414 a 47.32786,47.32786 0 0 1 0.22667,27.44358 c -1.38012,4.65808 -5.53945,20.61076 -11.62861,20.98227 -7.65117,0.46694 -3.05747,-12.81633 -12.58091,-13.38457 z"
         inkscape:connector-curvature="0"
         style="fill:#2f2e41" />
    </g>
  </g>
</svg>
